<svg version="1.1" xmlns="http://www.w3.org/2000/svg" xmlns:xlink="http://www.w3.org/1999/xlink" width="82.37249" height="59.59539" viewBox="0,0,82.37249,59.59539"><g transform="translate(-198.81376,-161.68331)"><g data-paper-data="{&quot;isPaintingLayer&quot;:true}" fill-rule="nonzero" stroke="#000000" stroke-width="2" stroke-linejoin="miter" stroke-miterlimit="10" stroke-dasharray="" stroke-dashoffset="0" style="mix-blend-mode: normal"><path d="M265.57084,196.82468c-2.11849,0.47306 -8.29105,1.24059 -12.12299,-1.2711c-4.24765,-2.78416 -6.09709,-8.97775 -6.70673,-10.64726c-1.40487,-3.84733 -2.93959,-13.87557 -2.93959,-13.87557l36.38492,-8.10558c0,0 0.30571,15.45615 -1.09576,20.69952c-2.28275,8.54057 -7.61874,11.88228 -13.51984,13.19998z" data-paper-data="{&quot;index&quot;:null}" fill="#ffffff" stroke-linecap="butt"/><path d="M215.64217,196.96738c-2.12335,-0.42432 -8.19074,-2.24617 -11.37352,-6.24182c-3.52807,-4.42909 -4.0909,-11.13302 -4.34912,-12.98613c-0.59506,-4.27039 -0.1069,-14.52005 -0.1069,-14.52005l36.4647,7.30584c0,0 -2.72695,14.94394 -5.095,19.38987c-3.85716,7.24165 -9.62553,8.23423 -15.54017,7.05229z" data-paper-data="{&quot;index&quot;:null}" fill="#ffffff" stroke-linecap="butt"/><path d="M207.02559,220.2787c0,0 10.91967,-6.0617 34.43628,-6.09809c24.01034,-0.03716 31.20788,6.09809 31.20788,6.09809" fill="none" stroke-linecap="round"/></g></g></svg>