<svg version="1.1" xmlns="http://www.w3.org/2000/svg" xmlns:xlink="http://www.w3.org/1999/xlink" width="82.37101" height="50.9978" viewBox="0,0,82.37101,50.9978"><g transform="translate(-198.8145,-167.23185)"><g data-paper-data="{&quot;isPaintingLayer&quot;:true}" fill-rule="nonzero" stroke="#000000" stroke-width="2" stroke-linejoin="miter" stroke-miterlimit="10" stroke-dasharray="" stroke-dashoffset="0" style="mix-blend-mode: normal"><path d="M265.57031,191.67016c-2.11849,0.32485 -8.29105,0.85191 -12.12299,-0.87286c-4.24765,-1.91188 -6.09709,-6.16501 -6.70673,-7.31146c-1.40487,-2.64196 -2.93959,-9.52834 -2.93959,-9.52834l36.38492,-5.56609c0,0 0.30571,10.61372 -1.09576,14.21434c-2.28275,5.8648 -7.61874,8.15955 -13.51984,9.06441z" data-paper-data="{&quot;index&quot;:null}" fill="#ffffff" stroke-linecap="butt"/><path d="M215.64164,191.76815c-2.12335,-0.29138 -8.19074,-1.54244 -11.37352,-4.28625c-3.52807,-3.04145 -4.0909,-7.64503 -4.34912,-8.91756c-0.59506,-2.93247 -0.1069,-9.9709 -0.1069,-9.9709l36.4647,5.01691c0,0 -2.72695,10.26199 -5.095,13.315c-3.85716,4.97283 -9.62553,5.65444 -15.54017,4.8428z" data-paper-data="{&quot;index&quot;:null}" fill="#ffffff" stroke-linecap="butt"/><path d="M207.02559,217.22965c0,0 10.91967,-3.03093 34.43628,-3.04913c24.01034,-0.01858 31.20788,3.04913 31.20788,3.04913" fill="none" stroke-linecap="round"/></g></g></svg>