<svg version="1.1" xmlns="http://www.w3.org/2000/svg" xmlns:xlink="http://www.w3.org/1999/xlink" width="85.38711" height="50.58468" viewBox="0,0,85.38711,50.58468"><g transform="translate(-197.30645,-168.31177)"><g data-paper-data="{&quot;isPaintingLayer&quot;:true}" fill-rule="nonzero" stroke="#000000" stroke-width="2" stroke-linejoin="miter" stroke-miterlimit="10" stroke-dasharray="" stroke-dashoffset="0" style="mix-blend-mode: normal"><path d="M217.47913,190.68683c-2.14308,0.02669 -8.3289,-0.3109 -11.88334,-2.55245c-3.94004,-2.48472 -5.17923,-6.95395 -5.62329,-8.17412c-1.0233,-2.81184 -1.58416,-9.84484 -1.58416,-9.84484l36.80551,-0.44537c0,0 -1.1752,10.55289 -3.06439,13.92328c-3.07717,5.48979 -8.68071,7.01917 -14.65032,7.0935z" data-paper-data="{&quot;index&quot;:null}" fill="#ffffff" stroke-linecap="butt"/><path d="M251.97646,187.7897c-3.94004,-2.48471 -5.17925,-6.95394 -5.6233,-8.17412c-1.0233,-2.81182 -1.58416,-9.84483 -1.58416,-9.84483l36.80551,-0.44537c0,0 -1.1752,10.55289 -3.06439,13.92328c-3.07717,5.48979 -8.68071,7.01917 -14.65032,7.0935c-2.14308,0.02668 -8.3289,-0.31091 -11.88334,-2.55246z" data-paper-data="{&quot;index&quot;:null}" fill="#ffffff" stroke-linecap="butt"/><path d="M206.26364,206.71566c0,0 12.57511,-8.30325 35.72871,-4.18721c23.63972,4.20245 30.50743,15.368 30.50743,15.368" fill="none" stroke-linecap="round"/></g></g></svg>