<svg version="1.1" xmlns="http://www.w3.org/2000/svg" xmlns:xlink="http://www.w3.org/1999/xlink" width="79.5567" height="82.62247" viewBox="0,0,79.5567,82.62247"><defs><linearGradient x1="269.67893" y1="216.68872" x2="269.67893" y2="244.94089" gradientUnits="userSpaceOnUse" id="color-1"><stop offset="0" stop-color="#66315a"/><stop offset="1" stop-color="#ff78e0"/></linearGradient></defs><g transform="translate(-200.8522,-162.31842)"><g data-paper-data="{&quot;isPaintingLayer&quot;:true}" fill-rule="nonzero" stroke-linejoin="miter" stroke-miterlimit="10" stroke-dasharray="" stroke-dashoffset="0" style="mix-blend-mode: normal"><path d="M201.85221,166.6806l33.10453,27.67332" fill="none" stroke="#000000" stroke-width="2" stroke-linecap="round"/><path d="M234.69811,163.57705l-32.32864,33.10453" fill="none" stroke="#000000" stroke-width="2" stroke-linecap="round"/><path d="M249.18134,163.31842l28.96646,29.74235" fill="none" stroke="#000000" stroke-width="2" stroke-linecap="round"/><path d="M253.83667,195.12981l23.79388,-31.29413" fill="none" stroke="#000000" stroke-width="2" stroke-linecap="round"/><path d="M272.66974,214.18044c0,0 -7.19754,6.13525 -31.20788,6.09809c-23.51661,-0.03639 -34.43628,-6.09809 -34.43628,-6.09809" data-paper-data="{&quot;index&quot;:null}" fill="none" stroke="#000000" stroke-width="2" stroke-linecap="round"/><path d="M279.27945,228.13617c2.55133,7.38968 0.63448,14.75608 -4.28141,16.45332c-4.91588,1.69724 -10.96925,-2.91741 -13.52058,-10.30709c-1.29852,-3.76103 -3.14737,-9.11163 -2.32473,-12.11624c0.79368,-2.89887 4.19223,-3.50366 6.60613,-4.33707c2.53566,-0.87545 5.85247,-2.03636 8.3567,-0.03853c2.35072,1.87537 3.92856,6.76761 5.16388,10.34562z" fill="url(#color-1)" stroke="none" stroke-width="0" stroke-linecap="butt"/></g></g></svg>