<svg version="1.1" xmlns="http://www.w3.org/2000/svg" xmlns:xlink="http://www.w3.org/1999/xlink" width="84.16037" height="77.54732" viewBox="0,0,84.16037,77.54732"><defs><linearGradient x1="239.83022" y1="207.76267" x2="239.83022" y2="235.75267" gradientUnits="userSpaceOnUse" id="color-1"><stop offset="0" stop-color="#331100"/><stop offset="1" stop-color="#653100"/></linearGradient></defs><g transform="translate(-197.91982,-158.20536)"><g data-paper-data="{&quot;isPaintingLayer&quot;:true}" fill-rule="nonzero" stroke-linecap="butt" stroke-linejoin="miter" stroke-miterlimit="10" stroke-dasharray="" stroke-dashoffset="0" style="mix-blend-mode: normal"><path d="M198.91982,179.77817c0.07592,-6.09778 1.11731,-11.92286 4.67282,-15.68259c3.1404,-3.32079 8.86481,-4.94507 13.38346,-4.88881c5.96961,0.07433 11.57315,1.60371 14.65032,7.0935c1.88919,3.37039 3.11878,9.55493 3.06439,13.92328c-0.07154,5.74626 -0.51698,11.82456 -3.72506,15.54868c-3.20312,3.71837 -9.69385,5.08046 -14.50743,5.02053c-4.54085,-0.05653 -9.71241,-1.83666 -12.77394,-5.26411c-3.43429,-3.84476 -4.84015,-9.67915 -4.76456,-15.75047z" fill="#ffffff" stroke="#000000" stroke-width="2"/><path d="M262.86393,159.51409c5.97,-0.0301 11.59943,1.40101 14.77216,6.83614c1.94786,3.33683 3.30748,13.86754 3.30748,13.86754l-36.80767,0.19854c0,0 0.43775,-7.04173 1.4117,-9.87105c0.42265,-1.22775 1.58347,-5.71797 5.47944,-8.27124c3.51468,-2.30339 9.69365,-2.74913 11.83687,-2.75993z" data-paper-data="{&quot;index&quot;:null}" fill="#ffffff" stroke="#000000" stroke-width="2"/><path d="M267.84119,220.31662c0,7.26523 -12.22408,15.43606 -27.67845,15.43606c-15.45436,0 -28.28676,-8.17083 -28.28676,-15.43606c0,-3.74011 0.02117,-12.31472 0.02117,-12.31472c0,0 17.72643,3.47547 28.72183,3.47547c11.20914,0 26.92088,-2.83876 26.92088,-2.83876c0,0 0.30132,8.14114 0.30132,11.67802z" fill="url(#color-1)" stroke="none" stroke-width="0"/><path d="M266.28455,214.01921c0,1.13904 -11.36481,2.42005 -25.73284,2.42005c-14.36802,0 -26.29839,-1.28102 -26.29839,-2.42005c0,-0.58637 0.01968,-2.80092 0.01968,-2.80092c0,0 16.06265,2.16102 26.28514,2.16102c10.42121,0 25.55069,-1.50177 25.55069,-1.50177c0,0 0.17571,1.58716 0.17571,2.14167z" fill="#ffffff" stroke="none" stroke-width="0"/></g></g></svg>