<svg version="1.1" xmlns="http://www.w3.org/2000/svg" xmlns:xlink="http://www.w3.org/1999/xlink" width="82.86054" height="83.88934" viewBox="0,0,82.86054,83.88934"><defs><linearGradient x1="240.66926" y1="221.88168" x2="240.66926" y2="234.07459" gradientUnits="userSpaceOnUse" id="color-1"><stop offset="0" stop-color="#331100"/><stop offset="1" stop-color="#653100"/></linearGradient><linearGradient x1="252.18097" y1="230.87171" x2="252.18097" y2="251.56804" gradientUnits="userSpaceOnUse" id="color-2"><stop offset="0" stop-color="#0090ff"/><stop offset="1" stop-color="#0022ff"/></linearGradient><linearGradient x1="249.8645" y1="228.31459" x2="249.8645" y2="232.70059" gradientUnits="userSpaceOnUse" id="color-3"><stop offset="0" stop-color="#0022ff"/><stop offset="1" stop-color="#0090ff"/></linearGradient></defs><g transform="translate(-198.56972,-171.66129)"><g data-paper-data="{&quot;isPaintingLayer&quot;:true}" fill-rule="nonzero" stroke-linejoin="miter" stroke-miterlimit="10" stroke-dasharray="" stroke-dashoffset="0" style="mix-blend-mode: normal"><path d="M199.56972,187.3387c0,0 6.65896,-8.18324 15.1633,-10.72172c10.15646,-3.03163 19.16646,0.24216 19.16646,0.24216" fill="none" stroke="#000000" stroke-width="2" stroke-linecap="round"/><path d="M252.11403,173.92288c0,0 7.43173,-2.70032 15.80908,-0.19974c7.01463,2.09382 12.50715,8.84361 12.50715,8.84361" data-paper-data="{&quot;index&quot;:null}" fill="none" stroke="#000000" stroke-width="2" stroke-linecap="round"/><path d="M241.00178,234.07459c-15.45436,0 -26.80342,-2.77895 -28.28676,-6.7242c-1.61732,-4.30161 0.15462,-6.49935 3.05727,-5.88588c9.28966,1.96337 14.69033,3.15408 25.68573,3.15408c11.20914,0 16.28172,-5.05972 26.92088,-4.31309c13.83333,0.97078 -11.92275,13.7691 -27.37712,13.7691z" fill="url(#color-1)" stroke="none" stroke-width="0" stroke-linecap="butt"/><path d="M257.12448,241.13349c0,5.71513 0.26885,14.41714 -3.90684,14.41714c-5.55792,0 -5.20268,-8.61562 -5.20268,-14.33075c0,-2.97967 -2.18843,-6.70187 -0.99003,-8.59003c1.10018,-1.73341 3.52955,-1.75813 5.15604,-1.75813c1.61406,0 3.6013,-2.15118 4.6988,-0.44123c1.21314,1.89012 0.24471,7.70243 0.24471,10.70301z" fill="url(#color-2)" stroke="none" stroke-width="0" stroke-linecap="butt"/><path d="M261.33138,230.02026c0,1.21116 -7.37134,2.80216 -13.70432,2.80216c-6.33298,0 -12.5856,0.84566 -12.5856,-0.3655c0,-0.87349 6.02647,-3.57704 9.89106,-3.92969c1.49395,-0.13633 4.00541,0.27469 5.77103,0.27469c2.18167,0 3.382,-0.37081 5.1182,-0.16854c3.30367,0.38489 5.50965,0.59295 5.50965,1.38687z" fill="url(#color-3)" stroke="none" stroke-width="0" stroke-linecap="butt"/></g></g></svg>