<svg version="1.1" xmlns="http://www.w3.org/2000/svg" xmlns:xlink="http://www.w3.org/1999/xlink" width="85.61429" height="71.76394" viewBox="0,0,85.61429,71.76394"><defs><linearGradient x1="239.83022" y1="207.76267" x2="239.83022" y2="235.75267" gradientUnits="userSpaceOnUse" id="color-1"><stop offset="0" stop-color="#331100"/><stop offset="1" stop-color="#653100"/></linearGradient></defs><g transform="translate(-197.19285,-163.98874)"><g data-paper-data="{&quot;isPaintingLayer&quot;:true}" fill-rule="nonzero" stroke-linecap="butt" stroke-linejoin="miter" stroke-miterlimit="10" stroke-dasharray="" stroke-dashoffset="0" style="mix-blend-mode: normal"><path d="M217.25573,164.98874c5.96986,0.07076 11.57949,2.18683 14.67865,9.87857c1.90269,4.72225 3.1202,19.53456 3.1202,19.53456l-36.807,-0.41813c0,0 0.53265,-9.87927 1.54466,-13.83358c0.43916,-1.71593 1.66042,-7.99884 5.59046,-11.51021c3.54542,-3.16773 9.72983,-3.67662 11.87301,-3.65121z" fill="#ffffff" stroke="#000000" stroke-width="2"/><path d="M264.02466,165.4611c5.96955,0.11061 11.57195,2.26413 14.64504,9.97645c1.88668,4.73489 3.05403,19.55518 3.05403,19.55518l-36.80517,-0.66387c0,0 0.5661,-9.87562 1.59148,-13.8231c0.44496,-1.71299 1.68749,-7.98769 5.62938,-11.47275c3.5561,-3.14402 9.74218,-3.61161 11.88524,-3.57191z" fill="#ffffff" stroke="#000000" stroke-width="2"/><path d="M267.84119,220.31662c0,7.26523 -12.22408,15.43606 -27.67845,15.43606c-15.45436,0 -28.28676,-8.17083 -28.28676,-15.43606c0,-3.74011 0.02117,-12.31472 0.02117,-12.31472c0,0 17.72643,3.47547 28.72183,3.47547c11.20914,0 26.92088,-2.83876 26.92088,-2.83876c0,0 0.30132,8.14114 0.30132,11.67802z" fill="url(#color-1)" stroke="none" stroke-width="0"/><path d="M266.28455,214.01921c0,1.13904 -11.36481,2.42005 -25.73284,2.42005c-14.36802,0 -26.29839,-1.28102 -26.29839,-2.42005c0,-0.58637 0.01968,-2.80092 0.01968,-2.80092c0,0 16.06265,2.16102 26.28514,2.16102c10.42121,0 25.55069,-1.50177 25.55069,-1.50177c0,0 0.17571,1.58716 0.17571,2.14167z" fill="#ffffff" stroke="none" stroke-width="0"/></g></g></svg>