<svg version="1.1" xmlns="http://www.w3.org/2000/svg" xmlns:xlink="http://www.w3.org/1999/xlink" width="85.38711" height="62.68565" viewBox="0,0,85.38711,62.68565"><defs><linearGradient x1="240.1099" y1="211.75293" x2="240.1099" y2="230.99811" gradientUnits="userSpaceOnUse" id="color-1"><stop offset="0" stop-color="#331100"/><stop offset="1" stop-color="#653100"/></linearGradient></defs><g transform="translate(-197.30644,-168.31246)"><g data-paper-data="{&quot;isPaintingLayer&quot;:true}" fill-rule="nonzero" stroke-linecap="butt" stroke-linejoin="miter" stroke-miterlimit="10" stroke-dasharray="" stroke-dashoffset="0" style="mix-blend-mode: normal"><path d="M217.47913,169.31246c5.96961,0.07433 11.57315,1.60371 14.65032,7.0935c1.88919,3.37039 3.06439,13.92328 3.06439,13.92328l-36.80551,-0.44537c0,0 0.56086,-7.033 1.58416,-9.84484c0.44406,-1.22017 1.68325,-5.6894 5.62329,-8.17412c3.55444,-2.24155 9.74026,-2.57914 11.88334,-2.55245z" fill="#ffffff" stroke="#000000" stroke-width="2"/><path d="M263.85979,169.65713c5.96961,0.07433 11.57315,1.60371 14.65032,7.0935c1.88919,3.37039 3.06439,13.92328 3.06439,13.92328l-36.80551,-0.44537c0,0 0.56086,-7.03301 1.58416,-9.84483c0.44405,-1.22018 1.68326,-5.68941 5.6233,-8.17412c3.55444,-2.24155 9.74026,-2.57914 11.88334,-2.55246z" fill="#ffffff" stroke="#000000" stroke-width="2"/><path d="M268.12087,220.38469c0,4.99538 -12.22408,10.61342 -27.67845,10.61342c-15.45436,0 -28.28676,-5.61805 -28.28676,-10.61342c0,-2.5716 0.02117,-8.46727 0.02117,-8.46727c0,0 17.72643,2.38964 28.72183,2.38964c11.20914,0 26.92088,-1.95186 26.92088,-1.95186c0,0 0.30132,5.59763 0.30132,8.0295z" fill="url(#color-1)" stroke="none" stroke-width="0"/><path d="M266.56423,216.05476c0,0.78317 -11.36481,1.66396 -25.73284,1.66396c-14.36802,0 -26.29839,-0.8808 -26.29839,-1.66396c0,-0.40317 0.01968,-1.92584 0.01968,-1.92584c0,0 16.06265,1.48586 26.28514,1.48586c10.42121,0 25.55069,-1.03258 25.55069,-1.03258c0,0 0.17571,1.09129 0.17571,1.47256z" fill="#ffffff" stroke="none" stroke-width="0"/></g></g></svg>