<svg version="1.1" xmlns="http://www.w3.org/2000/svg" xmlns:xlink="http://www.w3.org/1999/xlink" width="88.17346" height="71.36123" viewBox="0,0,88.17346,71.36123"><g transform="translate(-195.91326,-149.91747)"><g data-paper-data="{&quot;isPaintingLayer&quot;:true}" fill-rule="nonzero" stroke-linejoin="miter" stroke-miterlimit="10" stroke-dasharray="" stroke-dashoffset="0" style="mix-blend-mode: normal"><path d="" fill="#65471b" stroke="none" stroke-width="1" stroke-linecap="butt"/><path d="M245.13833,189.725c0,-10.05126 8.31608,-24.26847 18.36736,-24.26847c10.05126,0 17.0378,9.85898 18.03152,24.26847c0.88472,12.82885 -8.14817,18.19945 -18.19945,18.19945c-10.05126,0 -18.19945,-8.14819 -18.19945,-18.19945z" fill="#ffffff" stroke="#000000" stroke-width="2" stroke-linecap="butt"/><path d="M197.81979,189.725c-1.42727,-17.90128 11.36845,-22.89434 21.41974,-22.89434c10.05126,0 14.97914,12.84309 14.97914,22.89434c0,10.05126 -8.14817,18.19945 -18.19945,18.19945c-10.05126,0 -17.40058,-8.17997 -18.19943,-18.19945z" fill="#ffffff" stroke="#000000" stroke-width="2" stroke-linecap="butt"/><path d="M279.15444,161.39703c0,0 -9.01,3.27379 -19.16646,0.24216c-8.50434,-2.53848 -15.1633,-10.72172 -15.1633,-10.72172" data-paper-data="{&quot;index&quot;:null}" fill="none" stroke="#000000" stroke-width="2" stroke-linecap="round"/><path d="M226.61013,151.58244c0,0 -5.49252,6.74979 -12.50715,8.84361c-8.37735,2.50058 -15.80908,-0.19974 -15.80908,-0.19974" data-paper-data="{&quot;index&quot;:null}" fill="none" stroke="#000000" stroke-width="2" stroke-linecap="round"/><path d="M232.46703,204.36413c-2.62548,1.91593 -5.91697,3.25926 -9.78719,3.99225c-0.68497,0.12852 -1.37366,0.23634 -2.06514,0.3233c-5.25655,0.65696 -10.88458,0.15225 -15.44107,-1.38383c-3.89612,-1.31564 -6.98505,-3.783 -8.93683,-7.00229c-0.60351,-0.99389 -0.34048,-2.28484 0.60379,-2.96341c5.00219,-3.58215 11.67326,3.76469 19.04075,2.8439c7.37127,-0.92126 14.94274,-5.45733 19.84803,-2.4806c0.4476,0.27468 0.76362,0.72022 0.87482,1.23349c0.1112,0.51326 0.00798,1.04965 -0.28578,1.48496c-1.04361,1.53183 -2.34704,2.86939 -3.85139,3.95224z" fill="#5dadec" stroke="none" stroke-width="1" stroke-linecap="butt"/><path d="M279.90589,205.48531c-2.62548,1.91593 -5.91697,3.25925 -9.78719,3.99224c-0.68496,0.12852 -1.37365,0.23635 -2.06514,0.32331c-5.25655,0.65697 -10.88458,0.15224 -15.44107,-1.38384c-3.89612,-1.31563 -6.98505,-3.783 -8.93683,-7.00229c-0.60351,-0.9939 -0.34049,-2.28484 0.60379,-2.96341c5.00219,-3.58215 11.67326,3.76469 19.04074,2.84391c7.37126,-0.92126 14.94274,-5.45733 19.84803,-2.48061c0.44759,0.27468 0.76361,0.72022 0.87482,1.23349c0.1112,0.51326 0.00798,1.04966 -0.28578,1.48496c-1.04361,1.53184 -2.34703,2.86939 -3.85139,3.95224z" fill="#5dadec" stroke="none" stroke-width="1" stroke-linecap="butt"/><path d="M272.66974,214.18044c0,0 -7.19754,6.13525 -31.20788,6.09809c-23.51661,-0.03639 -34.43628,-6.09809 -34.43628,-6.09809" data-paper-data="{&quot;index&quot;:null}" fill="none" stroke="#000000" stroke-width="2" stroke-linecap="round"/></g></g></svg>