<svg version="1.1" xmlns="http://www.w3.org/2000/svg" xmlns:xlink="http://www.w3.org/1999/xlink" width="83.07731" height="50.98284" viewBox="0,0,83.07731,50.98284"><g transform="translate(-198.46135,-166.66002)"><g data-paper-data="{&quot;isPaintingLayer&quot;:true}" fill-rule="nonzero" stroke="#000000" stroke-width="2" stroke-linecap="round" stroke-linejoin="miter" stroke-miterlimit="10" stroke-dasharray="" stroke-dashoffset="0" style="mix-blend-mode: normal"><path d="M199.61018,185.62569c-0.58442,-2.6716 -0.15065,-9.85153 -0.15065,-9.85153l34.6563,-7.75887c0,0 1.32319,4.69152 0.37225,13.18565c-0.16363,1.46162 -0.34937,5.63493 -1.7668,7.96012c-2.17429,3.56677 -29.64094,3.16537 -29.64094,3.16537c0,0 -2.84979,-3.86474 -3.47016,-6.70074z" fill="#ffffff"/><path d="M276.91967,192.15385c0,0 -27.46664,0.4014 -29.64093,-3.16537c-1.41743,-2.3252 -1.60317,-6.4985 -1.7668,-7.96013c-0.95094,-8.49413 0.37224,-13.18564 0.37224,-13.18564l34.6563,7.75888c0,0 0.43376,7.17993 -0.15065,9.85153c-0.62037,2.836 -3.47016,6.70073 -3.47016,6.70073z" data-paper-data="{&quot;index&quot;:null}" fill="#ffffff"/><path d="M207.02558,216.64286c0,0 10.91967,-2.44766 34.43628,-2.46235c24.01034,-0.015 31.20788,2.46235 31.20788,2.46235" data-paper-data="{&quot;index&quot;:null}" fill="none"/></g></g></svg>