<svg version="1.1" xmlns="http://www.w3.org/2000/svg" xmlns:xlink="http://www.w3.org/1999/xlink" width="96.73058" height="72.25041" viewBox="0,0,96.73058,72.25041"><defs><linearGradient x1="239.83023" y1="235.99191" x2="239.83023" y2="208.00191" gradientUnits="userSpaceOnUse" id="color-1"><stop offset="0" stop-color="#331100"/><stop offset="1" stop-color="#653100"/></linearGradient></defs><g transform="translate(-191.63471,-163.50227)"><g data-paper-data="{&quot;isPaintingLayer&quot;:true}" fill-rule="nonzero" stroke-linecap="butt" stroke-linejoin="miter" stroke-miterlimit="10" stroke-dasharray="" stroke-dashoffset="0" style="mix-blend-mode: normal"><path d="M209.52013,191.41593c-1.96741,-0.85018 -7.47699,-3.68265 -9.80729,-7.17955c-2.58311,-3.87624 -1.89066,-8.46211 -1.79813,-9.75728c0.21322,-2.98463 2.57117,-9.63428 2.57117,-9.63428l33.78328,14.61279c0,0 -5.37927,9.15468 -8.47937,11.46074c-5.04954,3.75617 -10.78939,2.86576 -16.26967,0.49757z" data-paper-data="{&quot;index&quot;:null}" fill="#ffffff" stroke="#000000" stroke-width="2"/><path d="M270.44336,192.01923c-5.48027,2.36819 -11.22012,3.25861 -16.26966,-0.49757c-3.1001,-2.30606 -8.47937,-11.46074 -8.47937,-11.46074l33.78328,-14.6128c0,0 2.35795,6.64965 2.57117,9.63428c0.09253,1.29516 0.78498,5.88104 -1.79814,9.75728c-2.3303,3.49689 -7.83988,6.32937 -9.80729,7.17955z" data-paper-data="{&quot;index&quot;:null}" fill="#ffffff" stroke="#000000" stroke-width="2"/><path d="M199.12931,196.3412c-1.11803,0.55902 -1.67705,-0.55902 -1.67705,-0.55902l0.1094,-0.07628c-2.9481,-2.2507 -5.1998,-6.52982 -5.90694,-10.0655c0,0 -0.24515,-1.22573 0.98058,-1.47087c1.22573,-0.24515 1.47087,0.98058 1.47087,0.98058c0.58483,2.92417 2.45174,6.72164 4.95549,8.55579l0.62666,0.95824c0,0 0.55902,1.11803 -0.55902,1.67705z" fill="#000000" stroke="none" stroke-width="0.5"/><path d="M280.87069,193.06506c-1.11804,-0.55902 -0.55902,-1.67705 -0.55902,-1.67705l0.62666,-0.95824c2.50375,-1.83415 4.37066,-5.63162 4.95549,-8.55579c0,0 0.24514,-1.22573 1.47087,-0.98058c1.22573,0.24514 0.98058,1.47087 0.98058,1.47087c-0.70714,3.53568 -2.95884,7.8148 -5.90694,10.0655l0.1094,0.07628c0,0 -0.55902,1.11804 -1.67705,0.55902z" data-paper-data="{&quot;index&quot;:null}" fill="#000000" stroke="none" stroke-width="0.5"/><path d="M267.84119,223.43795c0,3.53688 -0.30132,11.67802 -0.30132,11.67802c0,0 -15.71174,-2.83876 -26.92088,-2.83876c-10.9954,0 -28.72183,3.47547 -28.72183,3.47547c0,0 -0.02117,-8.57461 -0.02117,-12.31472c0,-7.26523 12.8324,-15.43606 28.28676,-15.43606c15.45437,0 27.67845,8.17083 27.67845,15.43606z" data-paper-data="{&quot;index&quot;:null}" fill="url(#color-1)" stroke="none" stroke-width="0"/><path d="M258.55108,217.31564c0,0 -7.3965,-3.50766 -17.67487,-3.47451c-11.11121,0.03584 -18.66142,4.01128 -18.66142,4.01128l-1.23524,-2.59588c0,0 10.92103,-4.47535 19.89287,-4.47535c8.45352,0 18.76841,4.14784 18.76841,4.14784z" data-paper-data="{&quot;index&quot;:null}" fill="#ffffff" stroke="none" stroke-width="0"/></g></g></svg>