<svg version="1.1" xmlns="http://www.w3.org/2000/svg" xmlns:xlink="http://www.w3.org/1999/xlink" width="83.30204" height="63.22917" viewBox="0,0,83.30204,63.22917"><g transform="translate(-198.35129,-158.16586)"><g data-paper-data="{&quot;isPaintingLayer&quot;:true}" fill-rule="nonzero" stroke="#000000" stroke-width="2" stroke-linejoin="miter" stroke-miterlimit="10" stroke-dasharray="" stroke-dashoffset="0" style="mix-blend-mode: normal"><path d="M199.35129,179.81812c0.07592,-6.09778 1.11731,-11.92286 4.67282,-15.68259c3.1404,-3.32079 8.86481,-4.94507 13.38346,-4.88881c5.96961,0.07433 11.57315,1.60371 14.65032,7.0935c1.88919,3.37039 3.11878,9.55493 3.06439,13.92328c-0.07154,5.74626 -0.51698,11.82456 -3.72506,15.54868c-3.20312,3.71837 -9.69385,5.08046 -14.50743,5.02053c-4.54085,-0.05653 -9.71241,-1.83666 -12.77394,-5.26411c-3.43429,-3.84476 -4.84015,-9.67915 -4.76456,-15.75047z" fill="#ffffff" stroke-linecap="butt"/><path d="M244.8806,179.73868c0.07593,-6.09778 1.11731,-11.92286 4.67282,-15.68259c3.14041,-3.32079 8.86482,-4.94507 13.38347,-4.88881c5.96961,0.07433 11.57316,1.6037 14.65032,7.0935c1.88919,3.37039 3.11878,9.55493 3.06439,13.92328c-0.07154,5.74626 -0.51698,11.82456 -3.72506,15.54868c-3.20313,3.71837 -9.69385,5.08046 -14.50743,5.02053c-4.54085,-0.05653 -9.71241,-1.83666 -12.77394,-5.26411c-3.43429,-3.84476 -4.84015,-9.67915 -4.76456,-15.75047z" fill="#ffffff" stroke-linecap="butt"/><path d="M207.75852,220.39504c0,0 8.83743,-0.47888 32.84662,-0.71592c23.51546,-0.23217 34.32652,0.63765 34.32652,0.63765" data-paper-data="{&quot;index&quot;:null}" fill="none" stroke-linecap="round"/></g></g></svg>