<svg version="1.1" xmlns="http://www.w3.org/2000/svg" xmlns:xlink="http://www.w3.org/1999/xlink" width="85.80155" height="87.10946" viewBox="0,0,85.80155,87.10946"><g transform="translate(-197.09922,-146.04729)"><g data-paper-data="{&quot;isPaintingLayer&quot;:true}" fill-rule="nonzero" stroke-linejoin="miter" stroke-miterlimit="10" stroke-dasharray="" stroke-dashoffset="0" style="mix-blend-mode: normal"><path d="" fill="#65471b" stroke="none" stroke-width="1" stroke-linecap="butt"/><path d="M245.50189,194.75328c0,-10.05126 -0.41548,-33.18581 9.6358,-33.18581c10.05126,0 25.76936,18.77632 26.76308,33.18581c0.88472,12.82885 -8.14817,18.19945 -18.19945,18.19945c-10.05126,0 -18.19945,-8.14819 -18.19945,-18.19945z" fill="#ffffff" stroke="#000000" stroke-width="2" stroke-linecap="butt"/><path d="M198.18335,194.75328c-1.42727,-17.90128 15.64134,-34.9699 25.69263,-34.9699c10.05126,0 10.70625,24.91864 10.70625,34.9699c0,10.05126 -8.14817,18.19945 -18.19945,18.19945c-10.05126,0 -17.40058,-8.17997 -18.19943,-18.19945z" fill="#ffffff" stroke="#000000" stroke-width="2" stroke-linecap="butt"/><path d="M280.2025,157.52685c0,0 -9.01,3.27379 -19.16646,0.24216c-8.50434,-2.53848 -15.1633,-10.72172 -15.1633,-10.72172" data-paper-data="{&quot;index&quot;:null}" fill="none" stroke="#000000" stroke-width="2" stroke-linecap="round"/><path d="M227.65819,147.71226c0,0 -5.49252,6.74979 -12.50715,8.84361c-8.37735,2.50058 -15.80908,-0.19974 -15.80908,-0.19974" data-paper-data="{&quot;index&quot;:null}" fill="none" stroke="#000000" stroke-width="2" stroke-linecap="round"/><path d="M207.30526,232.15675c0,0 10.91967,-6.32312 34.43628,-6.36107c24.01034,-0.03875 31.20788,6.36107 31.20788,6.36107" data-paper-data="{&quot;index&quot;:null}" fill="none" stroke="#000000" stroke-width="2" stroke-linecap="round"/></g></g></svg>