<svg version="1.1" xmlns="http://www.w3.org/2000/svg" xmlns:xlink="http://www.w3.org/1999/xlink" width="95.58388" height="67.04589" viewBox="0,0,95.58388,67.04589"><g transform="translate(-192.20806,-154.08462)"><g data-paper-data="{&quot;isPaintingLayer&quot;:true}" fill-rule="nonzero" stroke="#000000" stroke-width="2" stroke-linejoin="miter" stroke-miterlimit="10" stroke-dasharray="" stroke-dashoffset="0" style="mix-blend-mode: normal"><path d="M193.20806,188.14815c0.06057,-4.86489 0.8914,-9.51222 3.72804,-12.51178c2.50545,-2.64937 7.07246,-3.94524 10.6775,-3.90036c4.76263,0.0593 9.23321,1.27946 11.68822,5.65929c1.50722,2.68894 2.4882,7.62305 2.44481,11.10818c-0.05708,4.58444 -0.41245,9.43379 -2.9719,12.40494c-2.55549,2.96656 -7.73388,4.05326 -11.57422,4.00545c-3.62275,-0.0451 -7.74869,-1.46531 -10.19122,-4.19978c-2.73992,-3.0674 -3.86154,-7.72215 -3.80123,-12.56593z" fill="#ffffff" stroke-linecap="butt"/><path d="M262.17105,156.44691c0,0 6.48564,-2.73369 13.71835,-0.45609c7.98373,2.51409 10.51684,4.28296 10.90254,8.94277c0.4571,5.52236 -19.54699,7.68171 -19.54699,7.68171" fill="none" stroke-linecap="round"/><path d="M264.15131,178.22062c0.44219,0.28363 0.18752,1.46947 -0.56883,2.64865c-0.75635,1.17917 -1.72796,1.90516 -2.17015,1.62153c-0.44219,-0.28363 -0.18752,-1.46947 0.56883,-2.64865c0.75635,-1.17917 1.72796,-1.90516 2.17015,-1.62153z" fill="#000000" stroke-linecap="butt"/><path d="M232.37886,196.97505c-3.28042,-2.06873 -4.31217,-5.78975 -4.68188,-6.80566c-0.85199,-2.34108 -1.31895,-8.19667 -1.31895,-8.19667l30.64375,-0.37081c0,0 -0.97845,8.78619 -2.55137,11.59233c-2.56201,4.57072 -7.22744,5.84406 -12.19765,5.90595c-1.7843,0.02221 -6.93452,-0.25886 -9.8939,-2.12514z" data-paper-data="{&quot;index&quot;:null}" fill="#ffffff" stroke-linecap="butt"/><path d="M195.27902,220.13051c0,0 9.71005,-5.62268 30.62163,-5.65643c21.35061,-0.03446 27.75085,5.65643 27.75085,5.65643" data-paper-data="{&quot;index&quot;:null}" fill="none" stroke-linecap="round"/></g></g></svg>