<svg version="1.1" xmlns="http://www.w3.org/2000/svg" xmlns:xlink="http://www.w3.org/1999/xlink" width="93.86801" height="60.36335" viewBox="0,0,93.86801,60.36335"><g transform="translate(-193.066,-167.1998)"><g data-paper-data="{&quot;isPaintingLayer&quot;:true}" fill-rule="nonzero" stroke-linejoin="miter" stroke-miterlimit="10" stroke-dasharray="" stroke-dashoffset="0" style="mix-blend-mode: normal"><path d="M263.95591,191.67163c-5.9011,-0.90486 -11.23709,-3.19961 -13.51984,-9.06441c-1.40147,-3.60062 -1.09576,-14.21434 -1.09576,-14.21434l36.38492,5.56609c0,0 -1.53472,6.88638 -2.93959,9.52834c-0.60964,1.14645 -2.45908,5.39958 -6.70673,7.31146c-3.83194,1.72477 -10.0045,1.19771 -12.12299,0.87286z" data-paper-data="{&quot;index&quot;:null}" fill="#ffffff" stroke="#000000" stroke-width="2" stroke-linecap="butt"/><path d="M220.59735,191.511c-5.91464,0.81164 -11.68301,0.13003 -15.54017,-4.8428c-2.36805,-3.05301 -5.095,-13.315 -5.095,-13.315l36.4647,-5.01691c0,0 0.48816,7.03843 -0.1069,9.9709c-0.25822,1.27253 -0.82105,5.87611 -4.34912,8.91756c-3.18278,2.74381 -9.25017,3.99487 -11.37352,4.28625z" data-paper-data="{&quot;index&quot;:null}" fill="#ffffff" stroke="#000000" stroke-width="2" stroke-linecap="butt"/><path d="M200.5606,189.65965c-1.11803,0.55902 -1.67705,-0.55902 -1.67705,-0.55902l0.1094,-0.07628c-2.9481,-2.2507 -5.1998,-6.52982 -5.90694,-10.0655c0,0 -0.24515,-1.22573 0.98058,-1.47087c1.22573,-0.24515 1.47087,0.98058 1.47087,0.98058c0.58483,2.92417 2.45174,6.72164 4.95549,8.55579l0.62666,0.95824c0,0 0.55902,1.11803 -0.55902,1.67705z" fill="#000000" stroke="none" stroke-width="0.5" stroke-linecap="butt"/><path d="M210.10206,226.56315c0,0 9.71005,-22.3029 30.62163,-22.43677c21.35061,-0.13669 27.75085,22.43677 27.75085,22.43677" data-paper-data="{&quot;index&quot;:null}" fill="none" stroke="#000000" stroke-width="2" stroke-linecap="round"/></g></g></svg>