<svg version="1.1" xmlns="http://www.w3.org/2000/svg" xmlns:xlink="http://www.w3.org/1999/xlink" width="75.79535" height="70.24442" viewBox="0,0,75.79535,70.24442"><defs><linearGradient x1="239.83022" y1="235.99191" x2="239.83022" y2="208.00191" gradientUnits="userSpaceOnUse" id="color-1"><stop offset="0" stop-color="#331100"/><stop offset="1" stop-color="#653100"/></linearGradient></defs><g transform="translate(-202.10232,-165.50826)"><g data-paper-data="{&quot;isPaintingLayer&quot;:true}" fill-rule="nonzero" stroke-linejoin="miter" stroke-miterlimit="10" stroke-dasharray="" stroke-dashoffset="0" style="mix-blend-mode: normal"><path d="M203.10233,166.50826l30.25961,12.15557l-29.22509,14.74186" fill="none" stroke="#000000" stroke-width="2" stroke-linecap="round"/><path d="M275.86316,193.49174l-29.22509,-14.74187l30.25961,-12.15556" data-paper-data="{&quot;index&quot;:null}" fill="none" stroke="#000000" stroke-width="2" stroke-linecap="round"/><path d="M267.84118,223.43795c0,3.53688 -0.30132,11.67802 -0.30132,11.67802c0,0 -15.71174,-2.83876 -26.92088,-2.83876c-10.9954,0 -28.72183,3.47547 -28.72183,3.47547c0,0 -0.02117,-8.57461 -0.02117,-12.31472c0,-7.26523 12.8324,-15.43606 28.28676,-15.43606c15.45437,0 27.67845,8.17083 27.67845,15.43606z" data-paper-data="{&quot;index&quot;:null}" fill="url(#color-1)" stroke="none" stroke-width="0" stroke-linecap="butt"/><path d="M258.55107,217.31564c0,0 -7.3965,-3.50766 -17.67487,-3.47451c-11.11121,0.03584 -18.66142,4.01128 -18.66142,4.01128l-1.23524,-2.59588c0,0 10.92103,-4.47535 19.89287,-4.47535c8.45352,0 18.76841,4.14784 18.76841,4.14784z" data-paper-data="{&quot;index&quot;:null}" fill="#ffffff" stroke="none" stroke-width="0" stroke-linecap="butt"/></g></g></svg>