<svg version="1.1" xmlns="http://www.w3.org/2000/svg" xmlns:xlink="http://www.w3.org/1999/xlink" width="99.83413" height="42.73511" viewBox="0,0,99.83413,42.73511"><g transform="translate(-190.08293,-168.31178)"><g data-paper-data="{&quot;isPaintingLayer&quot;:true}" fill-rule="nonzero" stroke-linejoin="miter" stroke-miterlimit="10" stroke-dasharray="" stroke-dashoffset="0" style="mix-blend-mode: normal"><path d="M217.29196,190.68684c-2.14308,0.02669 -8.3289,-0.3109 -11.88334,-2.55245c-3.94004,-2.48472 -5.17923,-6.95395 -5.62329,-8.17412c-1.0233,-2.81184 -1.58416,-9.84484 -1.58416,-9.84484l36.80551,-0.44537c0,0 -1.1752,10.55289 -3.06439,13.92328c-3.07717,5.48979 -8.68071,7.01917 -14.65032,7.0935z" data-paper-data="{&quot;index&quot;:null}" fill="#ffffff" stroke="#000000" stroke-width="2" stroke-linecap="butt"/><path d="M251.78929,187.78971c-3.94004,-2.48471 -5.17925,-6.95394 -5.6233,-8.17412c-1.0233,-2.81182 -1.58416,-9.84483 -1.58416,-9.84483l36.80551,-0.44537c0,0 -1.1752,10.55289 -3.06439,13.92328c-3.07717,5.48979 -8.68071,7.01917 -14.65032,7.0935c-2.14308,0.02668 -8.3289,-0.31091 -11.88334,-2.55246z" data-paper-data="{&quot;index&quot;:null}" fill="#ffffff" stroke="#000000" stroke-width="2" stroke-linecap="butt"/><path d="M197.57754,190.51048c-1.11803,0.55902 -1.67705,-0.55902 -1.67705,-0.55902l0.1094,-0.07628c-2.9481,-2.2507 -5.1998,-6.52982 -5.90694,-10.0655c0,0 -0.24515,-1.22573 0.98058,-1.47087c1.22573,-0.24515 1.47087,0.98058 1.47087,0.98058c0.58483,2.92417 2.45174,6.72164 4.95549,8.55579l0.62666,0.95824c0,0 0.55902,1.11803 -0.55902,1.67705z" fill="#000000" stroke="none" stroke-width="0.5" stroke-linecap="butt"/><path d="M282.42247,190.59651c-1.11804,-0.55902 -0.55902,-1.67705 -0.55902,-1.67705l0.62666,-0.95824c2.50375,-1.83415 4.37066,-5.63162 4.95549,-8.55579c0,0 0.24514,-1.22573 1.47087,-0.98058c1.22573,0.24514 0.98058,1.47087 0.98058,1.47087c-0.70714,3.53568 -2.95884,7.8148 -5.90694,10.0655l0.1094,0.07628c0,0 -0.55902,1.11804 -1.67705,0.55902z" data-paper-data="{&quot;index&quot;:null}" fill="#000000" stroke="none" stroke-width="0.5" stroke-linecap="butt"/><path d="M206.36012,210.04688c0,0 10.23583,-1.5976 34.24502,-1.83464c23.51546,-0.23217 32.92812,1.75637 32.92812,1.75637" data-paper-data="{&quot;index&quot;:null}" fill="none" stroke="#000000" stroke-width="2" stroke-linecap="round"/></g></g></svg>