<svg version="1.1" xmlns="http://www.w3.org/2000/svg" xmlns:xlink="http://www.w3.org/1999/xlink" width="83.55183" height="84.68429" viewBox="0,0,83.55183,84.68429"><g transform="translate(-198.2241,-153.0062)"><g data-paper-data="{&quot;isPaintingLayer&quot;:true}" fill-rule="nonzero" stroke="#000000" stroke-width="2" stroke-linejoin="miter" stroke-miterlimit="10" stroke-dasharray="" stroke-dashoffset="0" style="mix-blend-mode: normal"><path d="M199.2241,184.97731c0.07592,-6.09778 1.11731,-11.92286 4.67282,-15.68259c3.1404,-3.32079 8.86481,-4.94507 13.38346,-4.88881c5.96961,0.07433 11.57315,1.60371 14.65032,7.0935c1.88919,3.37039 3.11878,9.55493 3.06439,13.92328c-0.07154,5.74626 -0.51698,11.82456 -3.72506,15.54868c-3.20312,3.71837 -9.69385,5.08046 -14.50743,5.02053c-4.54085,-0.05653 -9.71241,-1.83666 -12.77394,-5.26411c-3.43429,-3.84476 -4.84015,-9.67915 -4.76456,-15.75047z" fill="#ffffff" stroke-linecap="butt"/><path d="M245.00321,188.71398c0.07592,-4.66503 1.11731,-9.12143 4.67282,-11.99776c3.1404,-2.54053 8.86481,-3.78316 13.38346,-3.74012c5.96961,0.05687 11.57315,1.2269 14.65032,5.42679c1.88919,2.57847 3.11878,7.30987 3.06439,10.65182c-0.07154,4.3961 -0.51698,9.04622 -3.72506,11.89531c-3.20312,2.84469 -9.69385,3.88674 -14.50743,3.84089c-4.54085,-0.04325 -9.71241,-1.40511 -12.77394,-4.02724c-3.43429,-2.94138 -4.84015,-7.40491 -4.76456,-12.04969z" fill="#ffffff" stroke-linecap="butt"/><path d="M203.49647,159.26802c0,0 8.79493,-5.26182 13.15455,-5.26182c4.07806,0 12.21494,5.26182 12.21494,5.26182" fill="none" stroke-linecap="round"/><path d="M249.91326,167.34868l25.93327,-0.56377" fill="none" stroke-linecap="round"/><path d="M209.25643,229.73444c0,0 11.73543,-16.29448 32.51057,-13.90726c21.21131,2.43732 25.44596,20.86332 25.44596,20.86332" data-paper-data="{&quot;index&quot;:null}" fill="none" stroke-linecap="round"/></g></g></svg>