<svg version="1.1" xmlns="http://www.w3.org/2000/svg" xmlns:xlink="http://www.w3.org/1999/xlink" width="80.64861" height="65.256" viewBox="0,0,80.64861,65.256"><defs><linearGradient x1="239.99852" y1="201.45233" x2="239.99852" y2="236.91032" gradientUnits="userSpaceOnUse" id="color-1"><stop offset="0" stop-color="#824500"/><stop offset="1" stop-color="#523100"/></linearGradient><linearGradient x1="239.7972" y1="226.88003" x2="239.7972" y2="231.54132" gradientUnits="userSpaceOnUse" id="color-2"><stop offset="0" stop-color="#ff4646"/><stop offset="1" stop-color="#ff0000"/></linearGradient></defs><g transform="translate(-199.67569,-172.32392)"><g data-paper-data="{&quot;isPaintingLayer&quot;:true}" fill-rule="nonzero" stroke-linecap="butt" stroke-linejoin="miter" stroke-miterlimit="10" stroke-dasharray="" stroke-dashoffset="0" style="mix-blend-mode: normal"><path d="M236.01003,174.79905c-3.23895,8.41736 -6.73214,9.73477 -11.43035,11.17965c-4.69095,1.44265 -10.91069,-0.85945 -14.95368,-3.47257c-3.81392,-2.46506 -3.61023,-2.30122 -8.95031,-8.79141c-0.48763,-2.88 7.72499,11.05281 17.67284,12.56033c3.12133,0.47301 8.82003,-1.16436 12.60044,-4.42429c5.43535,-4.68703 8.24698,-11.23244 5.06107,-7.05172z" fill="none" stroke="#000000" stroke-width="2"/><path d="M248.86844,181.9401c3.71401,3.3354 9.37857,5.08719 12.50879,4.67713c9.97619,-1.3069 18.46769,-15.07151 17.92216,-12.20191c-5.46968,6.38135 -5.26274,6.22164 -9.12553,8.60939c-4.09479,2.53117 -10.35963,4.70757 -15.02057,3.17074c-4.66816,-1.5392 -8.13412,-2.92668 -11.20291,-11.40756c-3.10108,-4.24402 -0.42183,2.35668 4.91804,7.15221z" data-paper-data="{&quot;index&quot;:null}" fill="none" stroke="#000000" stroke-width="2"/><path d="M261.81357,220.48191c0,6.3802 -3.5995,12.02704 -9.12371,15.47957c-3.57551,2.23463 -7.95733,-2.30524 -12.69134,-2.30524c-4.38355,0 -8.46512,4.72743 -11.88417,2.78627c-5.97816,-3.39409 -9.93088,-9.27467 -9.93088,-15.96059c0,-10.50975 9.76693,-19.02958 21.81504,-19.02958c12.04812,0 21.81504,8.51983 21.81504,19.02958z" fill="url(#color-1)" stroke="#000000" stroke-width="2"/><path d="M252.46511,229.38165c0,0.83874 0.77948,2.67011 -2.42841,3.12398c-2.07628,0.29376 -7.49048,-1.39209 -10.2395,-1.39209c-2.54551,0 -7.42664,1.81941 -9.41207,1.56423c-3.47149,-0.44618 -3.25584,-2.41719 -3.25584,-3.29612c0,-1.38161 5.67162,-2.50162 12.66791,-2.50162c6.99629,0 12.66791,1.12001 12.66791,2.50162z" fill="url(#color-2)" stroke="#000000" stroke-width="0"/><path d="M251.76613,208.8291c0,0 -4.75436,-2.70694 -11.36114,-2.68136c-7.14212,0.02766 -11.99528,3.0956 -11.99528,3.0956l-0.79399,-2.0033c0,0 7.01988,-3.45373 12.78684,-3.45373c5.4338,0 12.06405,3.20098 12.06405,3.20098z" data-paper-data="{&quot;index&quot;:null}" fill="#ffffff" stroke="none" stroke-width="0"/></g></g></svg>