<svg version="1.1" xmlns="http://www.w3.org/2000/svg" xmlns:xlink="http://www.w3.org/1999/xlink" width="69.17314" height="39.65079" viewBox="0,0,69.17314,39.65079"><g transform="translate(-205.36012,-171.39608)"><g data-paper-data="{&quot;isPaintingLayer&quot;:true}" fill-rule="nonzero" stroke="#000000" stroke-width="2" stroke-linejoin="miter" stroke-miterlimit="10" stroke-dasharray="" stroke-dashoffset="0" style="mix-blend-mode: normal"><path d="M208.07032,180.86747c0.02776,-2.22995 0.4086,-4.36017 1.70884,-5.73509c1.14844,-1.21441 3.24184,-1.8084 4.8943,-1.78783c2.18307,0.02718 4.23228,0.58647 5.35759,2.59408c0.69087,1.23254 1.14053,3.49422 1.12064,5.09171c-0.02616,2.1014 -0.18906,4.32422 -1.36225,5.68612c-1.17137,1.3598 -3.54502,1.85791 -5.30534,1.836c-1.66058,-0.02067 -3.55181,-0.67166 -4.6714,-1.92507c-1.25591,-1.40602 -1.77003,-3.53965 -1.74239,-5.75991z" fill="#ffffff" stroke-linecap="butt"/><path d="M271.92863,179.919c0.02765,2.22027 -0.48648,4.35389 -1.74239,5.75992c-1.1196,1.25341 -3.01082,1.9044 -4.6714,1.92507c-1.76031,0.02192 -4.13396,-0.4762 -5.30534,-1.836c-1.17319,-1.36191 -1.33609,-3.58472 -1.36225,-5.68612c-0.01989,-1.5975 0.42977,-3.85917 1.12065,-5.09171c1.12532,-2.00761 3.17451,-2.5669 5.35759,-2.59408c1.65246,-0.02058 3.74586,0.57342 4.8943,1.78782c1.30025,1.37492 1.68107,3.50514 1.70884,5.73509z" data-paper-data="{&quot;index&quot;:null}" fill="#ffffff" stroke-linecap="butt"/><path d="M273.53326,208.27165c0,0 -9.41266,1.98854 -32.92812,1.75637c-24.00919,-0.23704 -34.24502,-1.83464 -34.24502,-1.83464" data-paper-data="{&quot;index&quot;:null}" fill="none" stroke-linecap="round"/></g></g></svg>