<svg version="1.1" xmlns="http://www.w3.org/2000/svg" xmlns:xlink="http://www.w3.org/1999/xlink" width="83.30204" height="90.8804" viewBox="0,0,83.30204,90.8804"><defs><linearGradient x1="239.83022" y1="207.76267" x2="239.83022" y2="235.75267" gradientUnits="userSpaceOnUse" id="color-1"><stop offset="0" stop-color="#331100"/><stop offset="1" stop-color="#653100"/></linearGradient><linearGradient x1="246.7189" y1="220.81181" x2="234.86522" y2="247.81346" gradientUnits="userSpaceOnUse" id="color-2"><stop offset="0" stop-color="#66315a"/><stop offset="1" stop-color="#ff78e0"/></linearGradient></defs><g transform="translate(-198.35129,-158.16586)"><g data-paper-data="{&quot;isPaintingLayer&quot;:true}" fill-rule="nonzero" stroke-linecap="butt" stroke-linejoin="miter" stroke-miterlimit="10" stroke-dasharray="" stroke-dashoffset="0" style="mix-blend-mode: normal"><path d="M267.84119,220.31662c0,7.26523 -12.22408,15.43606 -27.67845,15.43606c-15.45436,0 -28.28676,-8.17083 -28.28676,-15.43606c0,-3.74011 0.02117,-12.31472 0.02117,-12.31472c0,0 17.72643,3.47547 28.72183,3.47547c11.20914,0 26.92088,-2.83876 26.92088,-2.83876c0,0 0.30132,8.14114 0.30132,11.67802z" fill="url(#color-1)" stroke="none" stroke-width="0"/><path d="M255.00051,234.57725c0.37676,7.81325 -5.32642,14.28961 -12.73842,14.46536c-7.41197,0.17576 -13.72597,-6.01567 -14.10271,-13.82892c-0.19176,-3.97661 -0.46662,-9.63435 1.91519,-12.26393c2.29798,-2.53704 7.18363,-2.11513 10.82322,-2.20143c3.82317,-0.09065 8.83075,-0.2243 11.40553,2.4219c2.41697,2.48399 2.51478,7.62392 2.69718,11.40702z" fill="url(#color-2)" stroke="none" stroke-width="0"/><path d="M199.35129,179.81812c0.07592,-6.09778 1.11731,-11.92286 4.67282,-15.68259c3.1404,-3.32079 8.86481,-4.94507 13.38346,-4.88881c5.96961,0.07433 11.57315,1.60371 14.65032,7.0935c1.88919,3.37039 3.11878,9.55493 3.06439,13.92328c-0.07154,5.74626 -0.51698,11.82456 -3.72506,15.54868c-3.20312,3.71837 -9.69385,5.08046 -14.50743,5.02053c-4.54085,-0.05653 -9.71241,-1.83666 -12.77394,-5.26411c-3.43429,-3.84476 -4.84015,-9.67915 -4.76456,-15.75047z" fill="#ffffff" stroke="#000000" stroke-width="2"/><path d="M244.8806,179.73868c0.07593,-6.09778 1.11731,-11.92286 4.67282,-15.68259c3.14041,-3.32079 8.86482,-4.94507 13.38347,-4.88881c5.96961,0.07433 11.57316,1.6037 14.65032,7.0935c1.88919,3.37039 3.11878,9.55493 3.06439,13.92328c-0.07154,5.74626 -0.51698,11.82456 -3.72506,15.54868c-3.20313,3.71837 -9.69385,5.08046 -14.50743,5.02053c-4.54085,-0.05653 -9.71241,-1.83666 -12.77394,-5.26411c-3.43429,-3.84476 -4.84015,-9.67915 -4.76456,-15.75047z" fill="#ffffff" stroke="#000000" stroke-width="2"/></g></g></svg>