<svg version="1.1" xmlns="http://www.w3.org/2000/svg" xmlns:xlink="http://www.w3.org/1999/xlink" width="87.3256" height="88.66741" viewBox="0,0,87.3256,88.66741"><g transform="translate(-196.3372,-157.13455)"><g data-paper-data="{&quot;isPaintingLayer&quot;:true}" fill="#ffffff" fill-rule="nonzero" stroke="#000000" stroke-width="2" stroke-linecap="butt" stroke-linejoin="miter" stroke-miterlimit="10" stroke-dasharray="" stroke-dashoffset="0" style="mix-blend-mode: normal"><path d="M197.3372,179.80888c0.07968,-6.39955 1.1726,-12.51291 4.90407,-16.45871c3.29582,-3.48513 9.30352,-5.1898 14.0458,-5.13075c6.26504,0.07801 12.1459,1.68308 15.37535,7.44455c1.98268,3.53719 3.27313,10.0278 3.21604,14.61233c-0.07508,6.03064 -0.54256,12.40975 -3.90941,16.31817c-3.36164,3.90239 -10.17359,5.33189 -15.22539,5.26899c-4.76557,-0.05933 -10.19307,-1.92755 -13.40611,-5.52463c-3.60425,-4.03503 -5.07968,-10.15816 -5.00035,-16.52995z"/><path d="M245.11971,179.7255c0.07969,-6.39955 1.1726,-12.51291 4.90407,-16.45871c3.29583,-3.48513 9.30353,-5.1898 14.04581,-5.13075c6.26504,0.07801 12.14591,1.68307 15.37535,7.44455c1.98268,3.53719 3.27313,10.0278 3.21604,14.61233c-0.07508,6.03064 -0.54256,12.40975 -3.90941,16.31817c-3.36165,3.90239 -10.17359,5.33189 -15.22539,5.26899c-4.76557,-0.05933 -10.19307,-1.92755 -13.40611,-5.52463c-3.60425,-4.03503 -5.07968,-10.15816 -5.00035,-16.52995z"/><path d="M261.81357,230.15962c0,5.68656 -3.5995,10.71949 -9.12371,13.79666c-3.57551,1.99169 -7.95733,-2.05462 -12.69134,-2.05462c-4.38355,0 -8.46512,4.21347 -11.88417,2.48335c-5.97816,-3.02509 -9.93088,-8.26635 -9.93088,-14.22539c0,-9.36716 9.76693,-16.96073 21.81504,-16.96073c12.04812,0 21.81504,7.59357 21.81504,16.96073z"/></g></g></svg>