<svg version="1.1" xmlns="http://www.w3.org/2000/svg" xmlns:xlink="http://www.w3.org/1999/xlink" width="65.38179" height="91.90956" viewBox="0,0,65.38179,91.90956"><defs><linearGradient x1="242.39139" y1="206.62476" x2="252.00721" y2="232.91119" gradientUnits="userSpaceOnUse" id="color-1"><stop offset="0" stop-color="#331100"/><stop offset="1" stop-color="#653100"/></linearGradient><linearGradient x1="244.90429" y1="220.26971" x2="236.54883" y2="248.55018" gradientUnits="userSpaceOnUse" id="color-2"><stop offset="0" stop-color="#66315a"/><stop offset="1" stop-color="#ff78e0"/></linearGradient></defs><g transform="translate(-210.58914,-157.07309)"><g data-paper-data="{&quot;isPaintingLayer&quot;:true}" fill-rule="nonzero" stroke-linecap="butt" stroke-linejoin="miter" stroke-miterlimit="10" stroke-dasharray="" stroke-dashoffset="0" style="mix-blend-mode: normal"><path d="M273.01036,208.79162c2.49593,6.82304 -6.1771,18.69608 -20.69086,24.00535c-14.51375,5.30926 -29.37217,2.04424 -31.8681,-4.7788c-1.28489,-3.51247 -4.21077,-11.57247 -4.21077,-11.57247c0,0 17.84151,-2.82588 28.16769,-6.60329c10.52691,-3.85084 24.30714,-11.91451 24.30714,-11.91451c0,0 3.07983,7.54212 4.2949,10.86374z" fill="url(#color-1)" stroke="none" stroke-width="0"/><path d="M254.85503,232.88141c1.35865,7.70343 -3.48267,14.84704 -10.81339,15.95571c-7.33069,1.10867 -14.37478,-4.23747 -15.73341,-11.9409c-0.6915,-3.92072 -1.67735,-9.49868 0.35399,-12.40752c1.95985,-2.80647 6.85971,-1.4739 10.45939,-2.0183c3.78125,-0.57185 8.73204,-2.86555 11.61984,-0.56502c2.71081,2.15951 3.45575,7.24611 4.11357,10.97604z" fill="url(#color-2)" stroke="none" stroke-width="0"/><path d="M211.58914,187.14719c0.04392,-3.52742 0.64634,-6.89709 2.70311,-9.072c1.81665,-1.921 5.12808,-2.86061 7.74201,-2.82806c3.45328,0.043 6.69479,0.92771 8.47486,4.10342c1.09285,1.94969 1.80414,5.5273 1.77268,8.05429c-0.04138,3.32407 -0.29906,6.84023 -2.15486,8.99454c-1.85293,2.15099 -5.60766,2.93892 -8.3922,2.90426c-2.62677,-0.0327 -5.6184,-1.06246 -7.38942,-3.04516c-1.98665,-2.2241 -2.79991,-5.59916 -2.75618,-9.11127z" fill="#ffffff" stroke="#000000" stroke-width="2"/><path d="M245.09868,175.25254c0.06341,-5.09199 0.93302,-9.95625 3.90207,-13.09584c2.62242,-2.77305 7.40262,-4.12941 11.17595,-4.08243c4.98496,0.06207 9.66424,1.33918 12.23384,5.92347c1.57758,2.81446 2.60436,7.9789 2.55894,11.62672c-0.05974,4.79845 -0.43171,9.87417 -3.11063,12.98402c-2.67479,3.10505 -8.09491,4.24247 -12.11451,4.19242c-3.79186,-0.04721 -8.11041,-1.53371 -10.66695,-4.39583c-2.86782,-3.21059 -4.0418,-8.08263 -3.97867,-13.15252z" fill="#ffffff" stroke="#000000" stroke-width="2"/><path d="M261.68043,166.28283c0.01991,-1.59916 0.29302,-3.12681 1.22546,-4.11281c0.82358,-0.87089 2.32483,-1.29686 3.50986,-1.28211c1.56555,0.01949 3.0351,0.42058 3.84209,1.86029c0.49545,0.8839 0.81791,2.50581 0.80365,3.65142c-0.01876,1.50698 -0.13558,3.10103 -0.97691,4.07769c-0.84003,0.97515 -2.54224,1.33237 -3.80462,1.31665c-1.19085,-0.01482 -2.54711,-0.48167 -3.35,-1.38053c-0.90065,-1.0083 -1.26934,-2.53839 -1.24952,-4.13061z" fill="#000000" stroke="#000000" stroke-width="2"/><path d="M222.31358,194.36017c0.01313,-1.05441 0.1932,-2.06167 0.80801,-2.71179c0.54303,-0.57422 1.53288,-0.85509 2.31423,-0.84536c1.03225,0.01285 2.0012,0.27731 2.53329,1.22658c0.32667,0.5828 0.53929,1.65221 0.52988,2.40757c-0.01237,0.99363 -0.08939,2.04466 -0.64413,2.68863c-0.55387,0.64297 -1.67623,0.8785 -2.50858,0.86813c-0.78519,-0.00977 -1.67944,-0.31759 -2.20883,-0.91025c-0.59385,-0.66482 -0.83694,-1.67369 -0.82387,-2.72352z" fill="#000000" stroke="#000000" stroke-width="2"/></g></g></svg>